{"accessors":[{"bufferView":0,"byteOffset":0,"componentType":5126,"count":52,"max":[87.469627,1.746055,2.703905],"min":[-87.469658,-1.746055,-2.703905],"normalized":false,"type":"VEC3"},{"bufferView":1,"byteOffset":0,"componentType":5126,"count":52,"max":[1,0,0,1],"min":[1,0,0,1],"normalized":false,"type":"VEC4"},{"bufferView":2,"byteOffset":0,"componentType":5126,"count":52,"max":[0,0.841694,0.539955],"min":[0,0.841694,0.539955],"normalized":false,"type":"VEC3"},{"bufferView":3,"byteOffset":0,"componentType":5126,"count":52,"max":[1.499023,0.901367],"min":[-0.499756,0.165771],"normalized":false,"type":"VEC2"},{"bufferView":4,"byteOffset":0,"componentType":5125,"count":60,"max":[51],"min":[0],"normalized":false,"type":"SCALAR"},{"bufferView":5,"byteOffset":0,"componentType":5126,"count":6,"max":[0.5,0.5,0],"min":[-0.5,-0.5,0],"normalized":false,"type":"VEC3"},{"bufferView":6,"byteOffset":0,"componentType":5126,"count":6,"max":[0.999969,0,-0.007936,1],"min":[0.999969,0,-0.007936,1],"normalized":false,"type":"VEC4"},{"bufferView":7,"byteOffset":0,"componentType":5126,"count":6,"max":[0,0,1],"min":[0,0,1],"normalized":false,"type":"VEC3"},{"bufferView":8,"byteOffset":0,"componentType":5126,"count":6,"max":[1,1],"min":[0,0],"normalized":false,"type":"VEC2"},{"bufferView":9,"byteOffset":0,"componentType":5125,"count":6,"max":[5],"min":[0],"normalized":false,"type":"SCALAR"},{"bufferView":10,"byteOffset":0,"componentType":5126,"count":676,"max":[1.032884,6.770896,1.814165],"min":[-6.120804,-0.722184,-1.805753],"normalized":false,"type":"VEC3"},{"bufferView":11,"byteOffset":0,"componentType":5126,"count":676,"max":[1,0.992126,1,1],"min":[-1,-0.700787,-0.976378,1],"normalized":false,"type":"VEC4"},{"bufferView":12,"byteOffset":0,"componentType":5126,"count":676,"max":[1,1,1],"min":[-1,-1,-1],"normalized":false,"type":"VEC3"},{"bufferView":13,"byteOffset":0,"componentType":5126,"count":676,"max":[0.999512,0.999512],"min":[-0.000147,0.330811],"normalized":false,"type":"VEC2"},{"bufferView":14,"byteOffset":0,"componentType":5125,"count":1344,"max":[675],"min":[0],"normalized":false,"type":"SCALAR"},{"bufferView":15,"byteOffset":0,"componentType":5126,"count":8,"max":[1.160258,1.244899,1.928513],"min":[-1,0,-1],"normalized":false,"type":"VEC3"},{"bufferView":16,"byteOffset":0,"componentType":5126,"count":8,"max":[1,0,0,1],"min":[-1,0,0,-1],"normalized":false,"type":"VEC4"},{"bufferView":17,"byteOffset":0,"componentType":5126,"count":8,"max":[0,1,0.007936],"min":[0,0.999969,0],"normalized":false,"type":"VEC3"},{"bufferView":18,"byteOffset":0,"componentType":5126,"count":8,"max":[1,1],"min":[0,0],"normalized":false,"type":"VEC2"},{"bufferView":19,"byteOffset":0,"componentType":5125,"count":12,"max":[7],"min":[0],"normalized":false,"type":"SCALAR"},{"bufferView":20,"byteOffset":0,"componentType":5126,"count":80,"max":[8.491515,-5.625615,-0.300137],"min":[-166.173492,-5.625615,-9.603552],"normalized":false,"type":"VEC3"},{"bufferView":21,"byteOffset":0,"componentType":5126,"count":80,"max":[1,0,0,1],"min":[0.992126,0,0,1],"normalized":false,"type":"VEC4"},{"bufferView":22,"byteOffset":0,"componentType":5126,"count":80,"max":[0,1,0],"min":[0,1,0],"normalized":false,"type":"VEC3"},{"bufferView":23,"byteOffset":0,"componentType":5126,"count":80,"max":[1.861328,1.349609],"min":[-1.328125,-0.349609],"normalized":false,"type":"VEC2"},{"bufferView":24,"byteOffset":0,"componentType":5125,"count":180,"max":[79],"min":[0],"normalized":false,"type":"SCALAR"},{"bufferView":25,"byteOffset":0,"componentType":5126,"count":152,"max":[0.082097,1.706253,1.152974],"min":[-0.214241,-1.805823,-1.149986],"normalized":false,"type":"VEC3"},{"bufferView":26,"byteOffset":0,"componentType":5126,"count":152,"max":[1,1,1,1],"min":[-1,-1,-1,-1],"normalized":false,"type":"VEC4"},{"bufferView":27,"byteOffset":0,"componentType":5126,"count":152,"max":[1,1,1],"min":[-1,-1,-1],"normalized":false,"type":"VEC3"},{"bufferView":28,"byteOffset":0,"componentType":5126,"count":152,"max":[1.894531,2.019531],"min":[-0.463867,-1.019531],"normalized":false,"type":"VEC2"},{"bufferView":29,"byteOffset":0,"componentType":5125,"count":234,"max":[151],"min":[0],"normalized":false,"type":"SCALAR"},{"bufferView":30,"byteOffset":0,"componentType":5126,"count":713,"max":[8.491515,1.704274,-0.303677],"min":[-166.422302,-6.550544,-10.09321],"normalized":false,"type":"VEC3"},{"bufferView":31,"byteOffset":0,"componentType":5126,"count":713,"max":[1,0,1,1],"min":[0,0,0,-1],"normalized":false,"type":"VEC4"},{"bufferView":32,"byteOffset":0,"componentType":5126,"count":713,"max":[1,0.948683,1],"min":[-1,-0.83205,-1],"normalized":false,"type":"VEC3"},{"bufferView":33,"byteOffset":0,"componentType":5126,"count":713,"max":[18.609375,1.883789],"min":[-20.546875,-0.672852],"normalized":false,"type":"VEC2"},{"bufferView":34,"byteOffset":0,"componentType":5125,"count":1668,"max":[712],"min":[0],"normalized":false,"type":"SCALAR"},{"bufferView":35,"byteOffset":0,"componentType":5126,"count":62,"max":[8.491515,-5.625615,-0.300137],"min":[-166.422302,-6.550544,-0.300137],"normalized":false,"type":"VEC3"},{"bufferView":36,"byteOffset":0,"componentType":5126,"count":62,"max":[-0.992126,0,0,1],"min":[-1,0,0,1],"normalized":false,"type":"VEC4"},{"bufferView":37,"byteOffset":0,"componentType":5126,"count":62,"max":[0,0,1],"min":[0,0,1],"normalized":false,"type":"VEC3"},{"bufferView":38,"byteOffset":0,"componentType":5126,"count":62,"max":[39.03125,0.542969],"min":[-39.03125,0.130127],"normalized":false,"type":"VEC2"},{"bufferView":39,"byteOffset":0,"componentType":5125,"count":180,"max":[61],"min":[0],"normalized":false,"type":"SCALAR"},{"bufferView":40,"byteOffset":0,"componentType":5126,"count":4304,"max":[8.497635,1.281213,0.358762],"min":[-166.443802,-2.413711,-10.59695],"normalized":false,"type":"VEC3"},{"bufferView":41,"byteOffset":0,"componentType":5126,"count":4304,"max":[1,1,0,1],"min":[-1,-1,-0.913386,-1],"normalized":false,"type":"VEC4"},{"bufferView":42,"byteOffset":0,"componentType":5126,"count":4304,"max":[1,1,1],"min":[-1,-1,-1],"normalized":false,"type":"VEC3"},{"bufferView":43,"byteOffset":0,"componentType":5126,"count":4304,"max":[63.625,2.792969],"min":[-63.625,-0.974609],"normalized":false,"type":"VEC2"},{"bufferView":44,"byteOffset":0,"componentType":5125,"count":5700,"max":[4303],"min":[0],"normalized":false,"type":"SCALAR"},{"bufferView":45,"byteOffset":0,"componentType":5126,"count":6664,"max":[0.607051,-2.431461,-9.655714],"min":[-158.503799,-3.808918,-9.806952],"normalized":false,"type":"VEC3"},{"bufferView":46,"byteOffset":0,"componentType":5126,"count":6664,"max":[1,1,0,1],"min":[-1,-1,0,1],"normalized":false,"type":"VEC4"},{"bufferView":47,"byteOffset":0,"componentType":5126,"count":6664,"max":[1,1,1],"min":[-1,-1,-1],"normalized":false,"type":"VEC3"},{"bufferView":48,"byteOffset":0,"componentType":5126,"count":6664,"max":[0.875,1],"min":[0.125,0],"normalized":false,"type":"VEC2"},{"bufferView":49,"byteOffset":0,"componentType":5125,"count":9720,"max":[6663],"min":[0],"normalized":false,"type":"SCALAR"},{"bufferView":50,"byteOffset":0,"componentType":5126,"count":638,"max":[8.659444,0.51672,-0.310502],"min":[-166.267105,-5.735094,-10.05617],"normalized":false,"type":"VEC3"},{"bufferView":51,"byteOffset":0,"componentType":5126,"count":638,"max":[1,1,1,1],"min":[-1,-1,-1,1],"normalized":false,"type":"VEC4"},{"bufferView":52,"byteOffset":0,"componentType":5126,"count":638,"max":[1,1,1],"min":[-1,-1,-1],"normalized":false,"type":"VEC3"},{"bufferView":53,"byteOffset":0,"componentType":5126,"count":638,"max":[92.5625,70.5],"min":[-46.96875,-67.6875],"normalized":false,"type":"VEC2"},{"bufferView":54,"byteOffset":0,"componentType":5125,"count":864,"max":[637],"min":[0],"normalized":false,"type":"SCALAR"},{"bufferView":55,"byteOffset":0,"componentType":5126,"count":96,"max":[-7.342334,-2.349988,-9.518263],"min":[-115.396103,-4.232745,-9.736999],"normalized":false,"type":"VEC3"},{"bufferView":56,"byteOffset":0,"componentType":5126,"count":96,"max":[1,0,0,1],"min":[0.992126,0,0,1],"normalized":false,"type":"VEC4"},{"bufferView":57,"byteOffset":0,"componentType":5126,"count":96,"max":[1,1,1],"min":[-1,-1,0],"normalized":false,"type":"VEC3"},{"bufferView":58,"byteOffset":0,"componentType":5126,"count":96,"max":[1,1],"min":[0,0],"normalized":false,"type":"VEC2"},{"bufferView":59,"byteOffset":0,"componentType":5125,"count":144,"max":[95],"min":[0],"normalized":false,"type":"SCALAR"},{"bufferView":60,"byteOffset":0,"componentType":5126,"count":992,"max":[8.652625,1.645084,0.306633],"min":[-172.658096,-1.860099,-0.504407],"normalized":false,"type":"VEC3"},{"bufferView":61,"byteOffset":0,"componentType":5126,"count":992,"max":[1,0,0,1],"min":[0.992126,0,0,-1],"normalized":false,"type":"VEC4"},{"bufferView":62,"byteOffset":0,"componentType":5126,"count":992,"max":[0,0,1],"min":[0,0,-1],"normalized":false,"type":"VEC3"},{"bufferView":63,"byteOffset":0,"componentType":5126,"count":992,"max":[1,1],"min":[0,0],"normalized":false,"type":"VEC2"},{"bufferView":64,"byteOffset":0,"componentType":5125,"count":1056,"max":[991],"min":[0],"normalized":false,"type":"SCALAR"},{"bufferView":65,"byteOffset":0,"componentType":5126,"count":6,"max":[-163.508408,2.18957,0.576534],"min":[-169.2453,-1.847417,0.576533],"normalized":false,"type":"VEC3"},{"bufferView":66,"byteOffset":0,"componentType":5126,"count":6,"max":[0.992126,0.007874,0,1],"min":[0.992126,0,0,1],"normalized":false,"type":"VEC4"},{"bufferView":67,"byteOffset":0,"componentType":5126,"count":6,"max":[0,0,1],"min":[0,0,1],"normalized":false,"type":"VEC3"},{"bufferView":68,"byteOffset":0,"componentType":5126,"count":6,"max":[1,1],"min":[0.001462,0],"normalized":false,"type":"VEC2"},{"bufferView":69,"byteOffset":0,"componentType":5125,"count":6,"max":[5],"min":[0],"normalized":false,"type":"SCALAR"},{"bufferView":70,"byteOffset":0,"componentType":5126,"count":2,"max":[49.900002],"min":[0],"normalized":false,"type":"SCALAR"},{"bufferView":71,"byteOffset":0,"componentType":5126,"count":2,"max":[-3.665,2.67,9.271],"min":[-160.505005,2.67,9.271],"normalized":false,"type":"VEC3"}],"animations":[{"channels":[{"sampler":0,"target":{"node":23,"path":"translation"}}],"name":"mover_Camara_prueba","samplers":[{"input":70,"interpolation":"LINEAR","output":71}]}],"asset":{"generator":"Godot Engine v3.5.3.stable.official@6c814135b69d4e703956bacc2073b4b179ff5a00","version":"2.0"},"bufferViews":[{"buffer":0,"byteLength":624,"byteOffset":0},{"buffer":0,"byteLength":832,"byteOffset":624},{"buffer":0,"byteLength":624,"byteOffset":1456},{"buffer":0,"byteLength":416,"byteOffset":2080},{"buffer":0,"byteLength":240,"byteOffset":2496},{"buffer":0,"byteLength":72,"byteOffset":2736},{"buffer":0,"byteLength":96,"byteOffset":2808},{"buffer":0,"byteLength":72,"byteOffset":2904},{"buffer":0,"byteLength":48,"byteOffset":2976},{"buffer":0,"byteLength":24,"byteOffset":3024},{"buffer":0,"byteLength":8112,"byteOffset":3048},{"buffer":0,"byteLength":10816,"byteOffset":11160},{"buffer":0,"byteLength":8112,"byteOffset":21976},{"buffer":0,"byteLength":5408,"byteOffset":30088},{"buffer":0,"byteLength":5376,"byteOffset":35496},{"buffer":0,"byteLength":96,"byteOffset":40872},{"buffer":0,"byteLength":128,"byteOffset":40968},{"buffer":0,"byteLength":96,"byteOffset":41096},{"buffer":0,"byteLength":64,"byteOffset":41192},{"buffer":0,"byteLength":48,"byteOffset":41256},{"buffer":0,"byteLength":960,"byteOffset":41304},{"buffer":0,"byteLength":1280,"byteOffset":42264},{"buffer":0,"byteLength":960,"byteOffset":43544},{"buffer":0,"byteLength":640,"byteOffset":44504},{"buffer":0,"byteLength":720,"byteOffset":45144},{"buffer":0,"byteLength":1824,"byteOffset":45864},{"buffer":0,"byteLength":2432,"byteOffset":47688},{"buffer":0,"byteLength":1824,"byteOffset":50120},{"buffer":0,"byteLength":1216,"byteOffset":51944},{"buffer":0,"byteLength":936,"byteOffset":53160},{"buffer":0,"byteLength":8556,"byteOffset":54096},{"buffer":0,"byteLength":11408,"byteOffset":62652},{"buffer":0,"byteLength":8556,"byteOffset":74060},{"buffer":0,"byteLength":5704,"byteOffset":82616},{"buffer":0,"byteLength":6672,"byteOffset":88320},{"buffer":0,"byteLength":744,"byteOffset":94992},{"buffer":0,"byteLength":992,"byteOffset":95736},{"buffer":0,"byteLength":744,"byteOffset":96728},{"buffer":0,"byteLength":496,"byteOffset":97472},{"buffer":0,"byteLength":720,"byteOffset":97968},{"buffer":0,"byteLength":51648,"byteOffset":98688},{"buffer":0,"byteLength":68864,"byteOffset":150336},{"buffer":0,"byteLength":51648,"byteOffset":219200},{"buffer":0,"byteLength":34432,"byteOffset":270848},{"buffer":0,"byteLength":22800,"byteOffset":305280},{"buffer":0,"byteLength":79968,"byteOffset":328080},{"buffer":0,"byteLength":106624,"byteOffset":408048},{"buffer":0,"byteLength":79968,"byteOffset":514672},{"buffer":0,"byteLength":53312,"byteOffset":594640},{"buffer":0,"byteLength":38880,"byteOffset":647952},{"buffer":0,"byteLength":7656,"byteOffset":686832},{"buffer":0,"byteLength":10208,"byteOffset":694488},{"buffer":0,"byteLength":7656,"byteOffset":704696},{"buffer":0,"byteLength":5104,"byteOffset":712352},{"buffer":0,"byteLength":3456,"byteOffset":717456},{"buffer":0,"byteLength":1152,"byteOffset":720912},{"buffer":0,"byteLength":1536,"byteOffset":722064},{"buffer":0,"byteLength":1152,"byteOffset":723600},{"buffer":0,"byteLength":768,"byteOffset":724752},{"buffer":0,"byteLength":576,"byteOffset":725520},{"buffer":0,"byteLength":11904,"byteOffset":726096},{"buffer":0,"byteLength":15872,"byteOffset":738000},{"buffer":0,"byteLength":11904,"byteOffset":753872},{"buffer":0,"byteLength":7936,"byteOffset":765776},{"buffer":0,"byteLength":4224,"byteOffset":773712},{"buffer":0,"byteLength":72,"byteOffset":777936},{"buffer":0,"byteLength":96,"byteOffset":778008},{"buffer":0,"byteLength":72,"byteOffset":778104},{"buffer":0,"byteLength":48,"byteOffset":778176},{"buffer":0,"byteLength":24,"byteOffset":778224},{"buffer":0,"byteLength":8,"byteOffset":778248},{"buffer":0,"byteLength":24,"byteOffset":778256}],"buffers":[{"byteLength":778280,"uri":"Plataforma_nivel_10.bin"}],"cameras":[{"perspective":{"yfov":0.523599,"zfar":1500,"znear":0.05},"type":"perspective"}],"extensions":{"KHR_lights_punctual":{"lights":[{"color":[1,1,1],"intensity":0.5,"range":340282346638528859811704183484516925440,"type":"directional"}]}},"extensionsRequired":["KHR_texture_transform"],"extensionsUsed":["KHR_lights_punctual","KHR_texture_transform"],"images":[{"uri":"textures/TEJAS_albedo.png"},{"uri":"textures/_normal.png"},{"uri":"textures/madera_albedo.png"},{"uri":"textures/madera002_orm.png"},{"uri":"textures/madera002_normal.png"},{"uri":"textures/arbol_albedo.png"},{"uri":"textures/Piso_Madera_albedo.png"},{"uri":"textures/Piso_Madera_orm.png"},{"uri":"textures/Piso_Madera_normal.png"},{"uri":"textures/paredConcreto_albedo.png"},{"uri":"textures/paredConcreto_orm.png"},{"uri":"textures/paredConcreto_normal.png"},{"uri":"textures/madera_albedo002.png"},{"uri":"textures/madera_orm.png"},{"uri":"textures/madera_normal.png"},{"uri":"textures/Vidrio_albedo.png"},{"uri":"textures/detallesMadera_albedo.png"},{"uri":"textures/detallesMadera_orm.png"},{"uri":"textures/detallesMadera_normal.png"},{"uri":"textures/cartel_albedo.png"},{"uri":"textures/cartel_emission.png"},{"uri":"textures/flores_para_exportar002_albedo.png"},{"uri":"textures/arbusto_004002_albedo.png"}],"materials":[{"doubleSided":true,"name":"TEJAS","pbrMetallicRoughness":{"baseColorFactor":[1,1,1,1],"baseColorTexture":{"extensions":{"KHR_texture_transform":{"offset":[0,0],"scale":[1,1]}},"index":0},"metallicFactor":0,"roughnessFactor":0.076471}},{"alphaMode":"BLEND","normalTexture":{"index":1,"scale":0.191505},"pbrMetallicRoughness":{"baseColorFactor":[0.003469,0.05448,0.040915,0.701647],"metallicFactor":0,"roughnessFactor":0.04}},{"doubleSided":true,"name":"madera002","normalTexture":{"index":4,"scale":-11.3},"occlusionTexture":{"index":3},"pbrMetallicRoughness":{"baseColorFactor":[1,1,1,1],"baseColorTexture":{"extensions":{"KHR_texture_transform":{"offset":[0,0],"scale":[1,1]}},"index":2},"metallicFactor":0.44,"metallicRoughnessTexture":{"extensions":{"KHR_texture_transform":{"offset":[0,0],"scale":[1,1]}},"index":3},"roughnessFactor":0.71}},{"alphaMode":"BLEND","doubleSided":true,"name":"arbol","pbrMetallicRoughness":{"baseColorFactor":[1,1,1,1],"baseColorTexture":{"extensions":{"KHR_texture_transform":{"offset":[0,0],"scale":[1,1]}},"index":5},"metallicFactor":0,"roughnessFactor":0.076471}},{"doubleSided":true,"name":"Piso_Madera","normalTexture":{"index":8,"scale":10},"occlusionTexture":{"index":7},"pbrMetallicRoughness":{"baseColorFactor":[1,1,1,1],"baseColorTexture":{"extensions":{"KHR_texture_transform":{"offset":[0,0.27],"scale":[2,2]}},"index":6},"metallicFactor":0,"metallicRoughnessTexture":{"extensions":{"KHR_texture_transform":{"offset":[0,0.27],"scale":[2,2]}},"index":7},"roughnessFactor":0.07}},{"doubleSided":true,"name":"paredConcreto","normalTexture":{"index":11,"scale":-0.5},"occlusionTexture":{"index":10},"pbrMetallicRoughness":{"baseColorFactor":[1,1,1,1],"baseColorTexture":{"extensions":{"KHR_texture_transform":{"offset":[0,0],"scale":[1,1]}},"index":9},"metallicFactor":0,"roughnessFactor":1}},{"doubleSided":true,"name":"madera","normalTexture":{"index":14,"scale":1},"occlusionTexture":{"index":13},"pbrMetallicRoughness":{"baseColorFactor":[1,1,1,1],"baseColorTexture":{"extensions":{"KHR_texture_transform":{"offset":[0,0],"scale":[1,1]}},"index":12},"metallicFactor":0.3,"metallicRoughnessTexture":{"extensions":{"KHR_texture_transform":{"offset":[0,0],"scale":[1,1]}},"index":13},"roughnessFactor":1}},{"doubleSided":true,"name":"Vidrio","pbrMetallicRoughness":{"baseColorFactor":[1,1,1,1],"baseColorTexture":{"extensions":{"KHR_texture_transform":{"offset":[0,0],"scale":[1,1]}},"index":15},"metallicFactor":0,"roughnessFactor":0.076471}},{"doubleSided":true,"name":"detallesMadera","normalTexture":{"index":18,"scale":12.5},"occlusionTexture":{"index":17},"pbrMetallicRoughness":{"baseColorFactor":[1,1,1,1],"baseColorTexture":{"extensions":{"KHR_texture_transform":{"offset":[0,0],"scale":[1,1]}},"index":16},"metallicFactor":0,"metallicRoughnessTexture":{"extensions":{"KHR_texture_transform":{"offset":[0,0],"scale":[1,1]}},"index":17},"roughnessFactor":1}},{"doubleSided":true,"emissiveFactor":[0.846834,0,0],"emissiveTexture":{"index":20},"name":"cartel","pbrMetallicRoughness":{"baseColorFactor":[1,1,1,1],"baseColorTexture":{"extensions":{"KHR_texture_transform":{"offset":[0,0],"scale":[1,1]}},"index":19},"metallicFactor":1,"roughnessFactor":0.076471}},{"alphaMode":"BLEND","doubleSided":true,"name":"flores_para_exportar002","pbrMetallicRoughness":{"baseColorFactor":[1,1,1,1],"baseColorTexture":{"extensions":{"KHR_texture_transform":{"offset":[0,0],"scale":[1,1]}},"index":21},"metallicFactor":0,"roughnessFactor":1}},{"alphaMode":"BLEND","doubleSided":true,"name":"arbusto_004002","pbrMetallicRoughness":{"baseColorFactor":[1,1,1,1],"baseColorTexture":{"extensions":{"KHR_texture_transform":{"offset":[0,0],"scale":[1,1]}},"index":22},"metallicFactor":0,"roughnessFactor":1}}],"meshes":[{"extras":{"targetNames":[]},"primitives":[{"attributes":{"NORMAL":2,"POSITION":0,"TANGENT":1,"TEXCOORD_0":3},"indices":4,"material":0,"mode":4}]},{"extras":{"targetNames":[]},"primitives":[{"attributes":{"NORMAL":7,"POSITION":5,"TANGENT":6,"TEXCOORD_0":8},"indices":9,"material":1,"mode":4}]},{"extras":{"targetNames":[]},"primitives":[{"attributes":{"NORMAL":12,"POSITION":10,"TANGENT":11,"TEXCOORD_0":13},"indices":14,"material":2,"mode":4}]},{"extras":{"targetNames":[]},"primitives":[{"attributes":{"NORMAL":17,"POSITION":15,"TANGENT":16,"TEXCOORD_0":18},"indices":19,"material":3,"mode":4}]},{"extras":{"targetNames":[]},"primitives":[{"attributes":{"NORMAL":22,"POSITION":20,"TANGENT":21,"TEXCOORD_0":23},"indices":24,"material":4,"mode":4}]},{"extras":{"targetNames":[]},"primitives":[{"attributes":{"NORMAL":27,"POSITION":25,"TANGENT":26,"TEXCOORD_0":28},"indices":29,"material":2,"mode":4}]},{"extras":{"targetNames":[]},"primitives":[{"attributes":{"NORMAL":32,"POSITION":30,"TANGENT":31,"TEXCOORD_0":33},"indices":34,"material":5,"mode":4},{"attributes":{"NORMAL":37,"POSITION":35,"TANGENT":36,"TEXCOORD_0":38},"indices":39,"material":4,"mode":4},{"attributes":{"NORMAL":42,"POSITION":40,"TANGENT":41,"TEXCOORD_0":43},"indices":44,"material":6,"mode":4},{"attributes":{"NORMAL":47,"POSITION":45,"TANGENT":46,"TEXCOORD_0":48},"indices":49,"material":7,"mode":4},{"attributes":{"NORMAL":52,"POSITION":50,"TANGENT":51,"TEXCOORD_0":53},"indices":54,"material":8,"mode":4},{"attributes":{"NORMAL":57,"POSITION":55,"TANGENT":56,"TEXCOORD_0":58},"indices":59,"material":9,"mode":4}]},{"extras":{"targetNames":[]},"primitives":[{"attributes":{"NORMAL":62,"POSITION":60,"TANGENT":61,"TEXCOORD_0":63},"indices":64,"material":10,"mode":4},{"attributes":{"NORMAL":67,"POSITION":65,"TANGENT":66,"TEXCOORD_0":68},"indices":69,"material":11,"mode":4}]}],"nodes":[{"children":[1],"extensions":{},"name":"EscenaPrincipal"},{"children":[2,6,21,27,28,30],"extensions":{},"name":"Nivel_1"},{"children":[3,4,5],"extensions":{},"name":"iluminación"},{"extensions":{},"name":"WorldEnvironment"},{"extensions":{"KHR_lights_punctual":{"light":0}},"name":"DirectionalLight","rotation":[-0.075452,-0.051324,0.008937,0.995788],"translation":[0,1.30464,6.29577]},{"extensions":{},"name":"ReflectionProbe","translation":[-78.622704,3.43339,-5.68467]},{"children":[7,10,13],"extensions":{},"name":"escenario"},{"children":[8,9],"extensions":{},"name":"tejas","rotation":[0.326256,0,0,0.945281],"translation":[0,0.773,-3.85]},{"extensions":{},"mesh":0,"name":"Estructura_Casa002","translation":[-78.075851,7.268757,-2.964263]},{"extensions":{},"name":"AnimationPlayer"},{"children":[11,12],"extensions":{},"mesh":1,"name":"Agua","rotation":[-0.707107,0,0,0.707107],"scale":[300,100,1],"translation":[-61.324001,0.881,30.339001]},{"extensions":{},"name":"AnimationPlayer2"},{"extensions":{},"name":"AnimationTreePlayer"},{"children":[14,15,16,17,18,19,20],"extensions":{},"name":"Plataforma_nivel_1"},{"extensions":{},"mesh":2,"name":"Escalera","scale":[1,1,0.83799],"translation":[-154.901993,1.32802,-5.69039]},{"extensions":{},"mesh":3,"name":"arboles","rotation":[0.701894,0,0,0.712281],"scale":[4.55461,4.554612,4.554612],"translation":[-164.542007,4.56572,0.02141]},{"extensions":{},"mesh":4,"name":"suelo","translation":[0.897777,6.61043,-0.964264]},{"extensions":{},"mesh":5,"name":"puerta","translation":[9.39799,2.68116,-6.02001]},{"extensions":{},"mesh":6,"name":"Estructura_Casa","translation":[0.897777,6.61043,-0.964264]},{"extensions":{},"name":"AnimationPlayer3"},{"extensions":{},"name":"AnimationTreePlayer2"},{"children":[22],"extensions":{},"name":"camaras"},{"children":[23,24],"extensions":{},"name":"camara_principal"},{"camera":0,"extensions":{},"name":"CameraPrincipal","rotation":[0.009076,-0.003927,0.000036,0.999951],"translation":[-3.66499,2.67,9.271]},{"children":[25,26],"extensions":{},"name":"plantascamara_principal","translation":[0,0.183,1.3]},{"extensions":{},"mesh":7,"name":"plantas","translation":[1.234568,-0.006727,0.3]},{"extensions":{},"name":"AnimationPlayer4"},{"extensions":{},"name":"personajes","translation":[1.77707,0.000001,0.000008]},{"children":[29],"extensions":{},"name":"audio"},{"extensions":{},"name":"AudioPrincipal"},{"extensions":{},"name":"AnimationPlayer5"}],"scene":0,"scenes":[{"nodes":[0]}],"textures":[{"source":0},{"source":1},{"source":2},{"source":3},{"source":4},{"source":5},{"source":6},{"source":7},{"source":8},{"source":9},{"source":10},{"source":11},{"source":12},{"source":13},{"source":14},{"source":15},{"source":16},{"source":17},{"source":18},{"source":19},{"source":20},{"source":21},{"source":22}]}