{"accessors":[{"bufferView":0,"byteOffset":0,"componentType":5126,"count":52,"max":[87.469627,1.746055,2.703905],"min":[-87.469658,-1.746055,-2.703905],"normalized":false,"type":"VEC3"},{"bufferView":1,"byteOffset":0,"componentType":5126,"count":52,"max":[1,0,0,1],"min":[1,0,0,1],"normalized":false,"type":"VEC4"},{"bufferView":2,"byteOffset":0,"componentType":5126,"count":52,"max":[0,0.841694,0.539955],"min":[0,0.841694,0.539955],"normalized":false,"type":"VEC3"},{"bufferView":3,"byteOffset":0,"componentType":5126,"count":52,"max":[1.499023,0.901367],"min":[-0.499756,0.165771],"normalized":false,"type":"VEC2"},{"bufferView":4,"byteOffset":0,"componentType":5125,"count":60,"max":[51],"min":[0],"normalized":false,"type":"SCALAR"}],"asset":{"generator":"Godot Engine v3.5.3.stable.official@6c814135b69d4e703956bacc2073b4b179ff5a00","version":"2.0"},"bufferViews":[{"buffer":0,"byteLength":624,"byteOffset":0},{"buffer":0,"byteLength":832,"byteOffset":624},{"buffer":0,"byteLength":624,"byteOffset":1456},{"buffer":0,"byteLength":416,"byteOffset":2080},{"buffer":0,"byteLength":240,"byteOffset":2496}],"buffers":[{"byteLength":2736,"uri":"tejas0.bin"}],"extensionsRequired":["KHR_texture_transform"],"extensionsUsed":["KHR_lights_punctual","KHR_texture_transform"],"images":[{"uri":"textures/TEJAS_albedo.png"}],"materials":[{"doubleSided":true,"name":"TEJAS","pbrMetallicRoughness":{"baseColorFactor":[1,1,1,1],"baseColorTexture":{"extensions":{"KHR_texture_transform":{"offset":[0,0],"scale":[1,1]}},"index":0},"metallicFactor":0,"roughnessFactor":0.076471}}],"meshes":[{"extras":{"targetNames":[]},"primitives":[{"attributes":{"NORMAL":2,"POSITION":0,"TANGENT":1,"TEXCOORD_0":3},"indices":4,"material":0,"mode":4}]}],"nodes":[{"children":[1,2],"extensions":{},"name":"tejas"},{"extensions":{},"mesh":0,"name":"Estructura_Casa002","translation":[-78.075851,7.268757,-2.964263]},{"extensions":{},"name":"AnimationPlayer"}],"scene":0,"scenes":[{"nodes":[0]}],"textures":[{"source":0}]}